<?xml version="1.0" encoding="utf-8"?>
<!-- Generator: Adobe Illustrator 22.1.0, SVG Export Plug-In . SVG Version: 6.00 Build 0)  -->
<svg version="1.1" id="Calque_1" xmlns="http://www.w3.org/2000/svg" xmlns:xlink="http://www.w3.org/1999/xlink" x="0px" y="0px"
	 viewBox="0 0 78.2 10.1" style="enable-background:new 0 0 78.2 10.1;" xml:space="preserve">
<style type="text/css">
	.st0{fill:#139FC6;}
	.st1{fill:#17323F;}
</style>
<title>Menu burger gauche</title>
<rect x="50.5" y="0" class="st0" width="27.6" height="0.9"/>
<rect x="50.5" y="4.5" class="st0" width="27.6" height="0.9"/>
<rect x="50.5" y="9" class="st0" width="27.6" height="0.9"/>
<path class="st1" d="M4.9,8.1L4.9,8.1L8.1,0h1.7v9.9H8.5V2.5l0,0l-3,7.4h-1L1.4,2.2l0,0v7.7H0V0h1.8L4.9,8.1z"/>
<path class="st1" d="M18.8,5.3h-4.1v3.6h4.8v1h-6.1V0h6v1.1h-4.7v3.2h4.1V5.3z"/>
<path class="st1" d="M29.8,9.9h-1.4l-4.8-7.6l0,0v7.6h-1.4V0h1.3l4.8,7.6l0,0V0h1.4L29.8,9.9z"/>
<path class="st1" d="M40.7,0v6.6c0,1-0.3,1.9-1.1,2.5s-1.7,1-2.7,0.9c-1,0-1.9-0.3-2.6-0.9c-0.7-0.7-1.1-1.6-1-2.6V0h1.3v6.6
	c0,0.7,0.2,1.3,0.7,1.8C35.7,8.8,36.3,9,37,9s1.3-0.2,1.8-0.6c0.5-0.5,0.7-1.1,0.7-1.8V0H40.7z"/>
</svg>
